<mxfile host="app.diagrams.net" modified="2023-09-27T09:14:46.808Z" agent="Mozilla/5.0 (Macintosh; Intel Mac OS X 10_15_7) AppleWebKit/537.36 (KHTML, like Gecko) Chrome/116.0.0.0 Safari/537.36" etag="P5D4GP2QpmIIHsQqdM_S" version="21.8.0" type="github">
  <diagram name="페이지-1" id="BGs-WoF0xCmT9xjcMw_S">
    <mxGraphModel dx="591" dy="1193" grid="1" gridSize="10" guides="1" tooltips="1" connect="1" arrows="1" fold="1" page="1" pageScale="1" pageWidth="827" pageHeight="1169" math="0" shadow="0">
      <root>
        <mxCell id="0" />
        <mxCell id="1" parent="0" />
        <mxCell id="qqBpQ4ju6N-MOj_vOHyj-1" value="Actor" style="shape=umlActor;verticalLabelPosition=bottom;verticalAlign=top;html=1;outlineConnect=0;" vertex="1" parent="1">
          <mxGeometry x="30" y="350" width="30" height="60" as="geometry" />
        </mxCell>
        <mxCell id="qqBpQ4ju6N-MOj_vOHyj-2" value="게시판 서비스" style="shape=umlFrame;whiteSpace=wrap;html=1;pointerEvents=0;width=100;height=30;" vertex="1" parent="1">
          <mxGeometry x="129" y="90" width="481" height="600" as="geometry" />
        </mxCell>
        <mxCell id="qqBpQ4ju6N-MOj_vOHyj-21" style="edgeStyle=orthogonalEdgeStyle;rounded=0;orthogonalLoop=1;jettySize=auto;html=1;exitX=1;exitY=0.5;exitDx=0;exitDy=0;entryX=0;entryY=0.5;entryDx=0;entryDy=0;dashed=1;" edge="1" parent="1" source="qqBpQ4ju6N-MOj_vOHyj-5" target="qqBpQ4ju6N-MOj_vOHyj-19">
          <mxGeometry relative="1" as="geometry" />
        </mxCell>
        <mxCell id="qqBpQ4ju6N-MOj_vOHyj-5" value="회원 로그인" style="rounded=1;whiteSpace=wrap;html=1;arcSize=40;fontColor=#000000;fillColor=#ffffc0;strokeColor=#ff0000;" vertex="1" parent="1">
          <mxGeometry x="180" y="200" width="120" height="40" as="geometry" />
        </mxCell>
        <mxCell id="qqBpQ4ju6N-MOj_vOHyj-7" value="회원 가입" style="rounded=1;whiteSpace=wrap;html=1;arcSize=40;fontColor=#000000;fillColor=#ffffc0;strokeColor=#ff0000;" vertex="1" parent="1">
          <mxGeometry x="180" y="320" width="120" height="40" as="geometry" />
        </mxCell>
        <mxCell id="qqBpQ4ju6N-MOj_vOHyj-15" style="edgeStyle=orthogonalEdgeStyle;rounded=0;orthogonalLoop=1;jettySize=auto;html=1;exitX=1;exitY=0.5;exitDx=0;exitDy=0;dashed=1;endArrow=none;endFill=0;" edge="1" parent="1" source="qqBpQ4ju6N-MOj_vOHyj-8" target="qqBpQ4ju6N-MOj_vOHyj-10">
          <mxGeometry relative="1" as="geometry" />
        </mxCell>
        <mxCell id="qqBpQ4ju6N-MOj_vOHyj-16" style="edgeStyle=orthogonalEdgeStyle;rounded=0;orthogonalLoop=1;jettySize=auto;html=1;exitX=1;exitY=0.5;exitDx=0;exitDy=0;entryX=0;entryY=0.5;entryDx=0;entryDy=0;dashed=1;endArrow=none;endFill=0;" edge="1" parent="1" source="qqBpQ4ju6N-MOj_vOHyj-8" target="qqBpQ4ju6N-MOj_vOHyj-12">
          <mxGeometry relative="1" as="geometry" />
        </mxCell>
        <mxCell id="qqBpQ4ju6N-MOj_vOHyj-8" value="게시판 보기" style="rounded=1;whiteSpace=wrap;html=1;arcSize=40;fontColor=#000000;fillColor=#ffffc0;strokeColor=#ff0000;" vertex="1" parent="1">
          <mxGeometry x="180" y="440" width="120" height="40" as="geometry" />
        </mxCell>
        <mxCell id="qqBpQ4ju6N-MOj_vOHyj-17" style="edgeStyle=orthogonalEdgeStyle;rounded=0;orthogonalLoop=1;jettySize=auto;html=1;exitX=1;exitY=0.5;exitDx=0;exitDy=0;dashed=1;endArrow=none;endFill=0;" edge="1" parent="1" source="qqBpQ4ju6N-MOj_vOHyj-9" target="qqBpQ4ju6N-MOj_vOHyj-13">
          <mxGeometry relative="1" as="geometry" />
        </mxCell>
        <mxCell id="qqBpQ4ju6N-MOj_vOHyj-18" style="edgeStyle=orthogonalEdgeStyle;rounded=0;orthogonalLoop=1;jettySize=auto;html=1;exitX=1;exitY=0.5;exitDx=0;exitDy=0;entryX=0;entryY=0.5;entryDx=0;entryDy=0;dashed=1;endArrow=none;endFill=0;" edge="1" parent="1" source="qqBpQ4ju6N-MOj_vOHyj-9" target="qqBpQ4ju6N-MOj_vOHyj-14">
          <mxGeometry relative="1" as="geometry" />
        </mxCell>
        <mxCell id="qqBpQ4ju6N-MOj_vOHyj-9" value="게시글 보기" style="rounded=1;whiteSpace=wrap;html=1;arcSize=40;fontColor=#000000;fillColor=#ffffc0;strokeColor=#ff0000;" vertex="1" parent="1">
          <mxGeometry x="180" y="560" width="120" height="40" as="geometry" />
        </mxCell>
        <mxCell id="qqBpQ4ju6N-MOj_vOHyj-10" value="게시판 정렬" style="rounded=1;whiteSpace=wrap;html=1;arcSize=40;fontColor=#000000;fillColor=#ffffc0;strokeColor=#ff0000;" vertex="1" parent="1">
          <mxGeometry x="360" y="400" width="120" height="40" as="geometry" />
        </mxCell>
        <mxCell id="qqBpQ4ju6N-MOj_vOHyj-12" value="게시판 검색" style="rounded=1;whiteSpace=wrap;html=1;arcSize=40;fontColor=#000000;fillColor=#ffffc0;strokeColor=#ff0000;" vertex="1" parent="1">
          <mxGeometry x="360" y="470" width="120" height="40" as="geometry" />
        </mxCell>
        <mxCell id="qqBpQ4ju6N-MOj_vOHyj-13" value="게시글 쓰기, 수정, 삭제" style="rounded=1;whiteSpace=wrap;html=1;arcSize=40;fontColor=#000000;fillColor=#ffffc0;strokeColor=#ff0000;" vertex="1" parent="1">
          <mxGeometry x="359" y="540" width="120" height="40" as="geometry" />
        </mxCell>
        <mxCell id="qqBpQ4ju6N-MOj_vOHyj-14" value="댓글 보기, 쓰기, 수정, 삭제" style="rounded=1;whiteSpace=wrap;html=1;arcSize=40;fontColor=#000000;fillColor=#ffffc0;strokeColor=#ff0000;" vertex="1" parent="1">
          <mxGeometry x="359" y="610" width="120" height="40" as="geometry" />
        </mxCell>
        <mxCell id="qqBpQ4ju6N-MOj_vOHyj-19" value="인증" style="rounded=1;whiteSpace=wrap;html=1;arcSize=40;fontColor=#000000;fillColor=#ffffc0;strokeColor=#ff0000;" vertex="1" parent="1">
          <mxGeometry x="358" y="160" width="120" height="40" as="geometry" />
        </mxCell>
        <mxCell id="qqBpQ4ju6N-MOj_vOHyj-22" style="edgeStyle=orthogonalEdgeStyle;rounded=0;orthogonalLoop=1;jettySize=auto;html=1;exitX=0;exitY=0.5;exitDx=0;exitDy=0;entryX=1;entryY=0.5;entryDx=0;entryDy=0;dashed=1;" edge="1" parent="1" source="qqBpQ4ju6N-MOj_vOHyj-20" target="qqBpQ4ju6N-MOj_vOHyj-5">
          <mxGeometry relative="1" as="geometry" />
        </mxCell>
        <mxCell id="qqBpQ4ju6N-MOj_vOHyj-20" value="로그인 실패" style="rounded=1;whiteSpace=wrap;html=1;arcSize=40;fontColor=#000000;fillColor=#ffffc0;strokeColor=#ff0000;" vertex="1" parent="1">
          <mxGeometry x="360" y="240" width="120" height="40" as="geometry" />
        </mxCell>
        <mxCell id="qqBpQ4ju6N-MOj_vOHyj-25" style="edgeStyle=orthogonalEdgeStyle;rounded=0;orthogonalLoop=1;jettySize=auto;html=1;exitX=0;exitY=0.5;exitDx=0;exitDy=0;entryX=1;entryY=0.5;entryDx=0;entryDy=0;" edge="1" parent="1" source="qqBpQ4ju6N-MOj_vOHyj-23" target="qqBpQ4ju6N-MOj_vOHyj-19">
          <mxGeometry relative="1" as="geometry" />
        </mxCell>
        <mxCell id="qqBpQ4ju6N-MOj_vOHyj-26" style="edgeStyle=orthogonalEdgeStyle;rounded=0;orthogonalLoop=1;jettySize=auto;html=1;exitX=0;exitY=0.5;exitDx=0;exitDy=0;" edge="1" parent="1" source="qqBpQ4ju6N-MOj_vOHyj-23">
          <mxGeometry relative="1" as="geometry">
            <mxPoint x="310" y="460" as="targetPoint" />
          </mxGeometry>
        </mxCell>
        <mxCell id="qqBpQ4ju6N-MOj_vOHyj-27" style="edgeStyle=orthogonalEdgeStyle;rounded=0;orthogonalLoop=1;jettySize=auto;html=1;exitX=0;exitY=0.5;exitDx=0;exitDy=0;entryX=1;entryY=0.5;entryDx=0;entryDy=0;" edge="1" parent="1" source="qqBpQ4ju6N-MOj_vOHyj-23" target="qqBpQ4ju6N-MOj_vOHyj-9">
          <mxGeometry relative="1" as="geometry" />
        </mxCell>
        <mxCell id="qqBpQ4ju6N-MOj_vOHyj-23" value="DB" style="html=1;whiteSpace=wrap;" vertex="1" parent="1">
          <mxGeometry x="670" y="365" width="110" height="110" as="geometry" />
        </mxCell>
      </root>
    </mxGraphModel>
  </diagram>
</mxfile>
